name C:\Users\Nicos\Documents\OpenSimProjects\SprintingProject\Study1\PredictiveResults\IC_pred_Sprinting_optimum_27-October-2023__11-17-52___IKTD_Plus_2_p02_maxVel_01.mot
datacolumns 38
datarows 7
range 0.05600000 0.06285757
endheader
                time	/jointset/ground_pelvis/pelvis_tilt/value	/jointset/ground_pelvis/pelvis_list/value	/jointset/ground_pelvis/pelvis_rotation/value	/jointset/ground_pelvis/pelvis_tx/value	/jointset/ground_pelvis/pelvis_ty/value	/jointset/ground_pelvis/pelvis_tz/value	/jointset/hip_r/hip_flexion_r/value	/jointset/hip_r/hip_adduction_r/value	/jointset/hip_r/hip_rotation_r/value	/jointset/knee_r/knee_angle_r/value	/jointset/ankle_r/ankle_angle_r/value	/jointset/subtalar_r/subtalar_angle_r/value	/jointset/mtp_r/mtp_angle_r/value	/jointset/hip_l/hip_flexion_l/value	/jointset/hip_l/hip_adduction_l/value	/jointset/hip_l/hip_rotation_l/value	/jointset/knee_l/knee_angle_l/value	/jointset/ankle_l/ankle_angle_l/value	/jointset/subtalar_l/subtalar_angle_l/value	/jointset/mtp_l/mtp_angle_l/value	/jointset/back/lumbar_extension/value	/jointset/back/lumbar_bending/value	/jointset/back/lumbar_rotation/value	/jointset/acromial_r/arm_flex_r/value	/jointset/acromial_r/arm_add_r/value	/jointset/acromial_r/arm_rot_r/value	/jointset/elbow_r/elbow_flex_r/value	/jointset/radioulnar_r/pro_sup_r/value	/jointset/radius_hand_r/wrist_flex_r/value	/jointset/radius_hand_r/wrist_dev_r/value	/jointset/acromial_l/arm_flex_l/value	/jointset/acromial_l/arm_add_l/value	/jointset/acromial_l/arm_rot_l/value	/jointset/elbow_l/elbow_flex_l/value	/jointset/radioulnar_l/pro_sup_l/value	/jointset/radius_hand_l/wrist_flex_l/value	/jointset/radius_hand_l/wrist_dev_l/value	
          0.05600000	         -7.50097657	         -3.46732665	         -5.49261472	          0.00000000	          0.99653689	          0.30574225	         34.69325099	          3.46462205	          0.20500749	        -17.56780391	        -22.46771311	        -15.56533251	         -0.36698354	         23.09713542	        -11.25415239	         -1.24543873	       -118.53295326	         -9.29548256	        -19.39867927	         -3.54915852	        -17.61240100	          7.41215604	         -4.11876519	         -6.09382113	        -25.71190018	        -14.62220287	         93.52710373	         75.69632219	        -23.37888573	          5.25160205	         -0.45028226	        -21.84522441	        -14.17822515	         73.51448885	         54.95155256	          0.42781555	          5.42057455	
          0.05664639	         -7.59621830	         -3.39237331	         -5.78947394	          0.00774028	          0.99606943	          0.30593111	         34.40105178	          3.51514836	          0.15203570	        -17.40804393	        -21.91084821	        -15.02843784	         -0.08813528	         23.54303425	        -11.27572647	         -1.41840226	       -118.89839618	         -9.10566710	        -19.47392151	         -3.44425737	        -17.47387509	          7.32011311	         -3.91240541	         -5.13187190	        -25.64793112	        -14.54714063	         93.69851724	         75.96315868	        -23.30542063	          5.24717096	         -1.01352960	        -21.60541626	        -14.03135380	         73.30437647	         55.32997602	          0.36087198	          5.46274319	
          0.05868871	         -7.89607967	         -3.13772440	         -6.74008983	          0.03221076	          0.99450279	          0.30652409	         33.47369030	          3.65669485	          0.07491096	        -16.93724308	        -20.05810555	        -13.52273142	          0.70214204	         24.96287810	        -11.35121483	         -1.97204436	       -120.03919370	         -8.51711104	        -19.70777356	         -3.30733410	        -17.02464837	          7.01917449	         -3.23353370	         -2.09428267	        -25.43179336	        -14.27341318	         94.21412017	         76.93217430	        -23.05249785	          5.25094677	         -2.77606972	        -20.84753731	        -13.46681256	         72.71622901	         56.47818679	          0.16331067	          5.64902831	
          0.06016887	         -8.11118538	         -2.93734364	         -7.43827693	          0.04996086	          0.99328455	          0.30694622	         32.79737260	          3.73951497	          0.10274513	        -16.63568888	        -18.65298101	        -12.61925596	          1.30120218	         26.00189967	        -11.41361430	         -2.37709121	       -120.85239731	         -8.10204072	        -19.87463716	         -3.39287624	        -16.68917824	          6.79380233	         -2.71786214	          0.10043818	        -25.26396844	        -14.04360530	         94.57091533	         77.69354527	        -22.86079424	          5.25623450	         -4.03999484	        -20.29819889	        -12.97015329	         72.35760301	         57.31356112	          0.02664596	          5.80426895	
          0.06016887	         -8.11118538	         -2.93734364	         -7.43827693	          0.04996086	          0.99328455	          0.30694622	         32.79737260	          3.73951497	          0.10274513	        -16.63568888	        -18.65298101	        -12.61925596	          1.30120218	         26.00189967	        -11.41361430	         -2.37709121	       -120.85239731	         -8.10204072	        -19.87463716	         -3.39287624	        -16.68917824	          6.79380233	         -2.71786214	          0.10043818	        -25.26396844	        -14.04360530	         94.57091533	         77.69354527	        -22.86079424	          5.25623450	         -4.03999484	        -20.29819889	        -12.97015329	         72.35760301	         57.31356112	          0.02664596	          5.80426895	
          0.06081525	         -8.20354420	         -2.84591437	         -7.74483601	          0.05771688	          0.99273238	          0.30712752	         32.50013647	          3.76965897	          0.13624828	        -16.51682995	        -18.02541984	        -12.27387639	          1.57494460	         26.45734387	        -11.44290178	         -2.55426589	       -121.20368853	         -7.92403789	        -19.94713175	         -3.47424287	        -16.54115565	          6.69387689	         -2.48700184	          1.05597230	        -25.18812351	        -13.93619588	         94.72437217	         78.02713545	        -22.77693860	          5.25652252	         -4.58916685	        -20.05831656	        -12.73259224	         72.21829751	         57.68489069	         -0.03303187	          5.87142513	
          0.06285757	         -8.49074321	         -2.54189073	         -8.71641164	          0.08224340	          0.99090452	          0.30768246	         31.55613922	          3.83632736	          0.32015391	        -16.20302754	        -15.96871296	        -11.31419230	          2.73457049	         27.90644120	        -11.54331380	         -3.11120828	       -122.29810552	         -7.38740303	        -20.18270755	         -3.66737123	        -16.06482914	          6.37445333	         -1.73704913	          4.05632831	        -24.93728732	        -13.58333164	         95.20831992	         79.09622030	        -22.50657764	          5.24840639	         -6.31669361	        -19.30047019	        -11.91009720	         71.85119190	         58.84441524	         -0.23082702	          6.11891402	
